# xmcd
#
# Track frame offsets:
#	150
#	16065
#	34096
#	49996
#	63183
#	78670
#	92522
#	111711
#	127842
#	142743
#	162563
#	177229
#	194247
#	210434
#	225995
#	243738
#
# Disc length: 3450 seconds
#
# Revision: 0
# Processed by: cddbd v1.5.1PL0 Copyright (c) Steve Scherf et al.
# Submitted via: dBpowerAMP V4.0
#
DISCID=d90d7810
DTITLE=Various Artist - DEFTERH AGAPH
DYEAR=1998
DGENRE=Greek
TTITLE0=POY PERPATAS - NATASA THEORODIDOY
TTITLE1=DEFTERH AGAPH - 
TTITLE2=YPOKATASTATO - 
TTITLE3=AXARISTH KARDIA - 
TTITLE4=TI THA XASO EAN SE XASO - 
TTITLE5=PERIPOY - 
TTITLE6=ENTEKA PARA - 
TTITLE7=SOSTO H LATHOS - 
TTITLE8=OTAN MIA GYNAIKA THELEI - 
TTITLE9=DEN THELO TETOIOY FILOYS - 
TTITLE10=NYXTA SE GNORISA - NATASA THEODORIDOY
TTITLE11=KANE KATI - 
TTITLE12=DEN THA MEINEI TIPOTA ORTHIO - 
TTITLE13=EGLHMA KARDIAS - 
TTITLE14=PARALOGA - 
TTITLE15=TI GYREVO EGO ME AFTOYS - 
EXTD=
EXTT0=
EXTT1=
EXTT2=
EXTT3=
EXTT4=
EXTT5=
EXTT6=
EXTT7=
EXTT8=
EXTT9=
EXTT10=
EXTT11=
EXTT12=
EXTT13=
EXTT14=
EXTT15=
PLAYORDER=
